<svg width="167" height="164" viewBox="0 0 167 164" fill="none" xmlns="http://www.w3.org/2000/svg">
<mask id="path-1-inside-1_51_721" fill="white">
<path d="M132.444 1.93516L132.759 2.54375L133.207 3.16792L134.709 4.22367L135.185 4.8106L135.553 5.46267L135.785 5.97194L136.248 6.37873L136.897 6.63944L137.453 6.94996L137.793 7.40646L138.303 7.88155L139.286 8.52743L139.765 8.54286L140.318 8.63308L140.806 8.80391L141.329 8.75418L142.172 8.33185L143.167 7.62388L143.927 7.18605L145.766 7.34113L146.792 7.69824L147.608 8.19815L148.245 8.16694L149.632 7.2416L150.368 6.25726L151.081 6.04627L152.163 6.47479L153.056 7.39394L153.841 8.72917L154.394 9.23844L155.151 10.0272L156.656 11.7257L158.616 12.5766L159.376 12.9957L159.623 13.415L159.768 13.9739L159.818 14.5794L160.056 14.8309L160.584 14.7437L161.035 14.6566L161.533 14.8305L161.879 15.2715L162.052 15.6162L162.24 15.9856L162.732 16.2217L162.828 16.6968L162.491 17.2743L162.145 17.7929L161.724 18.8239L161.505 19.8796L161.789 20.2305L162.089 20.5224L162.25 20.8175L162.345 21.1622L162.308 21.5658L161.641 23.0315L161.298 24.3108L161.286 24.9598L162.166 25.438L163.31 25.4133L163.671 25.7053L164.033 26.171L164.351 26.4101L164.833 26.4039L165.167 26.5652L165.3 26.8944L165.689 27.2484L166.017 27.6396L165.859 28.1396L165.831 28.5215L165.015 29.5835L163.143 31.6547L159.113 35.4958L159.11 35.4989L157.75 35.9616L157.049 36.6758L156.551 37.7968L155.377 38.747L154.471 39.132L154.376 39.3588L154.305 40.3897L154.397 41.902L153.974 42.5944L153.359 43.9421L153.041 44.7836L152.793 44.9479L152.518 45.3703L152.345 46.7427L152.228 47.2054L151.786 50.0467L151.913 50.8572L151.57 52.2079L151.554 53.0029L151.412 53.9034L151.168 54.6828L151.183 55.9311L151.322 57.9681L151.298 58.2384L150.958 58.4278L150.352 58.9339L149.78 59.2724L149.345 59.3595L148.619 60.26L148 61.114L147.537 61.9462L147.416 62.3281L147.512 63.4056L147.577 64.6819L147.435 65.2315L147.219 65.5576L146.205 66.25L145.538 66.7468L145.222 67.0076L145.058 67.4081L145.352 68.3521L145.374 69.0415L145.615 69.4483L146.418 69.7774L146.415 70.1097L146.437 70.4668L146.857 70.9108L147.623 71.8175L148.238 72.6684L148.254 73.4074L148.136 74.6433L148.115 75.3544L148.177 76.3294L148.174 78.1429L148.13 79.4347L148.229 80.1054L149.169 81.7045L149.583 83.4776L149.79 84.7756L149.799 85.1886L149.481 86.6822L149.119 88.1323L149.097 88.682L149.267 89.4148L149.938 91.0916L150.426 92.312L150.661 93.0479L150.998 93.905L151.446 95.2185L151.557 95.8426L151.465 96.3084L150.55 97.9573L150.457 98.4758L150.683 99.7552L150.983 100.991L151.415 101.693L152.447 103.631L153.217 104.286L154.635 105.255L155.887 106.23L156.369 106.736L156.811 107.301L157.682 108.748L158.214 109.925L158.495 110.99L159.178 112.446L159.815 113.797L160.637 115.449L161.218 116.616L161.48 117.396L159.978 117.629L157.806 117.961L155.411 118.331L152.939 118.709L150.488 119.088L148.164 119.445L146.054 119.768L145.411 119.948L145.726 120.868L145.581 121.833L145.164 122.582L144.502 123.501L144.203 123.867L143.529 124.584L142.966 125.091L141.82 125.941L141.097 126.429L141.091 126.87L142.308 128.932L142.861 130.413L143.087 131.751L143.075 132.521L143.028 134.105L142.973 135.99L142.889 136.732L143.22 138.077L143.161 139.126L142.342 140.3L142.114 141.452L141.699 143.008L141.128 145.169L140.72 146.305L140.945 147.045L141.149 147.541L141.366 148.209L141.804 149.215L142.317 149.808L142.605 150.063L144.292 151.333L144.994 151.944L146.063 153.162L146.854 153.969L147.954 154.158L149.274 154.463L150.003 154.699L150.504 154.584L150.674 154.298L150.649 153.69L150.562 153.243L150.701 152.898L151.149 152.671L152.296 152.634L152.793 152.33L153.189 152.255L153.192 153.59V154.869L153.195 156.425V158.211L153.198 159.676V161.235L153.201 163.036L153.192 163.238L153.016 163.645L152.562 163.784L151.947 163.433L151.91 163.064L151.758 162.402L151.474 162.064L151.1 161.958L150.47 162.129L149.604 162.616L148.495 163.045L148.044 163.29L147.262 163.259L146.415 163.026L145.794 162.476L145.615 161.654L145.068 160.809L144.326 159.585L143.952 159.086L143.458 158.514L142.957 158.449L142.398 158.291L142.055 157.456L141.733 156.4L141.536 155.993L141.202 155.468L140.723 155.148L139.678 154.726L138.22 154.139L136.384 153.4L135.513 153.363L134.536 153.238L133.924 152.888L133.575 152.608L133.173 151.583L132.623 150.385L131.013 148.959L130.652 147.382L130.327 147.155L129.774 147.283L129.348 147.478L129.178 147.904L128.748 149.326L128.51 149.981L128.349 150.164L127.997 150.375L127.422 150.568L126.603 150.664L125.448 150.627L124.001 150.416L123.223 150.257L121.112 150.021L120.5 149.906L119.638 149.596L119.017 149.285L116.971 148.615L116.041 148.696L115.593 148.22L115.188 147.988L114.632 147.54L114.385 146.929L114.054 145.615L114.134 144.913L114.372 144.131L114.106 143.914H113.736L113.204 144.184L112.261 144.336L110.534 144.681L109.922 144.873L109.245 145.022L108.726 145.155L107.428 145.91L106.977 145.991L106.208 145.721L105.837 145.317L106.208 144.861L106.365 144.292L106.103 143.184L105.704 142.671L104.554 142.305L104.112 142.271L103.927 141.65L103.609 141.084L102.954 140.976L102.638 140.911L102.311 141.085L102.125 141.541L102.073 141.892L101.489 142.159L100.296 142.106L99.1124 141.852L98.2811 141.768L97.728 141.833L95.6142 142.699L94.9189 142.814L92.6506 142.749L91.3651 142.566L90.4504 142.534L89.8014 142.805L88.9918 143.448L88.315 143.792L88.0029 143.755L87.8113 143.485L87.5455 143.118L87.4621 142.149L87.1252 141.09L87.3478 140.535L88.0152 140.137L88.247 139.317L88.04 138.088L88.0276 137.224L88.2069 136.724L87.9658 135.513L87.2983 133.591L86.3558 132.029L85.1382 130.821L84.3409 129.669L83.9639 128.567L84.106 125.931L84.4738 123.611L84.7643 121.77L84.6808 118.686L83.8557 116.68L83.6765 114.525L84.1431 112.221L84.2111 110.644L83.9021 109.836L83.692 109.715L83.4262 109.634L81.3403 109.557L78.5621 109.454L76.1394 109.423L73.5095 109.392L73.08 109.1L72.8853 108.562L72.8946 108.032L73.4323 106.404L73.355 106.271L72.4218 106.237L69.8877 106.501L68.2159 106.761L67.1559 106.849L65.2925 107.293L64.1398 108.23L63.7628 109.407L63.7937 110.379L63.7288 111.09L63.2035 111.832L62.7894 112.686L62.7739 113.137L62.5205 115.41L60.8023 115.714H59.0842L58.6824 115.686L56.5594 115.143L55.7714 115.14L55.0977 115.425L53.7967 115.705L52.5544 115.91L51.3028 116.584L50.9691 116.643L50.1378 116.292L48.9759 116.326L47.7985 116.494L47.2484 116.568L46.8683 116.363L45.7867 114.668L44.3467 112.41L43.5648 110.994L43.2743 110.625L42.7737 110.137L42.0877 109.215L41.8034 108.339L41.9239 107.51L41.5222 106.393L40.5982 104.986L39.9894 103.644L39.6989 102.362L39.6278 101.269L39.7731 100.356L39.5969 99.6853L39.0932 99.2537L38.8213 98.704L38.6235 98.4773L38.2063 97.9587L37.2885 97.3874L36.281 97.0862L34.0684 97.08L31.179 97.0707L28.5616 97.1143L25.6505 97.164L22.7024 97.2138L21.9082 97.2885L19.6585 97.3228L17.8569 97.177L17.1894 97.0837L16.0151 97.0124L14.1609 96.9969L13.1566 97.0528L10.7524 97.0559L10.533 97.0683L10.1528 97.2295L9.12687 97.0059L8.11943 97.0806L7.55701 96.8323L6.32089 96.9873L5.72138 97.1921L4.76032 97.9156L3.31715 98.2914L2.78255 98.2602L2.42717 98.1394L1.5897 97.3444L0.940745 96.5806L0.708984 96.1552L1.07054 96.0495L2.20468 95.8882L3.05757 95.8104L3.22445 95.6087L3.35424 93.2487L3.38515 90.8546L3.0823 90.5379L2.78564 90.3454L2.77328 90.1811L3.21518 89.8799L3.83014 89.529L4.02793 89.3708L4.70779 88.7374L6.05205 87.2717L7.07493 86.9115L8.02673 86.5264L8.15961 86.3868L8.28631 86.1011L8.71277 86.1227L8.84874 86.2592L9.05888 86.5698L9.43281 87.0045L10.1096 87.52L10.7894 88.0758L11.1294 88.1472L11.6763 87.8645L12.3129 87.4453L13.2493 87.141L13.4718 86.8553L13.5923 86.2435L13.6665 85.5914L13.7468 84.8213L13.9384 84.7157L14.2753 84.6409L14.8964 84.8584L15.1807 85.0851H15.6906L16.0151 84.8803L16.6084 84.5015L17.3624 84.3495L18.169 83.9831L18.9447 83.5173L19.3093 83.4738L19.6956 84.0855L20.0417 84.5109L20.1035 84.7781L19.7574 85.2874L19.3711 85.9581L19.6956 86.7934L19.7728 87.6039L19.7636 88.0945L20.0263 88.2931L20.2055 88.3864L20.4836 88.2718L21.0368 88.3061L21.7012 88.5607L22.3409 88.5329L22.9589 88.2192L24.1116 87.002L25.7958 84.878L27.1926 83.5459L28.2958 83.0025L29.0437 82.369L29.4361 81.6393L30.0789 81.1455L31.4201 80.7512L32.4399 80.304L33.4596 78.8477L34.8194 76.2269L35.1995 73.8886L35.4312 72.4665L35.2984 67.5633L35.2087 65.9548L35.4158 65.0792L35.9226 64.4768L37.307 63.2005L38.2372 62.154L38.948 60.9306L40.3108 58.139L40.9103 57.2385L41.1791 56.8348L42.0012 56.0927L43.1538 55.4374L44.6371 54.8754L46.927 52.9315L48.7472 50.9753L48.5 48.6246L48.9264 46.6745L49.9184 44.1966L50.2429 41.5727L49.903 38.8059L50.0451 36.5422L50.9969 33.9121L51.3925 32.9339L51.5254 31.3348L51.5192 28.7916L52.7275 25.3137L53.8709 23.2271L55.1502 20.8981L55.6385 19.4884L56.2875 17.6066L56.1855 16.0944L56.068 14.3554L56.3894 11.9644L56.2689 10.5578L55.8147 9.33429L56.0464 8.5611L56.9642 8.24748L58.1076 7.02401L60.1596 3.82875L62.3722 2.26993L63.9111 1.77619L65.515 1.82901L66.5626 2.10858L67.0447 2.61163L68.2592 3.36622L70.1999 4.36301L71.6523 5.61131L72.4558 6.86888L73.08 7.55204L73.8525 7.78806L75.1165 7.68551L76.5287 7.98052L77.9997 8.68541L78.9051 8.94614L79.2389 8.76295L79.9496 8.86552L81.5751 9.44309L82.8699 9.12633L84.789 9.36543L89.2452 10.3964L89.4831 10.2225L89.5882 10.182L89.9683 9.76588L90.9356 7.70092L91.7545 6.43089L92.1376 5.95268L93.0833 5.28197L94.1958 5.11114L95.2619 5.17013L96.155 5.46517L96.9709 5.80672L97.8732 5.80981L98.7972 5.48067L100.169 4.87515L101.616 4.48075L102.858 4.04606L104.904 3.28524L105.704 2.93438L106.721 2.79784L109.57 3.49342L111.415 3.03386L112.169 3.1673L113.766 2.67357L114.057 2.34132L115.074 0.661403L116.155 0.170776L117.793 0.419142L118.714 0.67988L121.78 1.39719L125.76 2.14554L126.931 2.26013L127.407 2.34417L127.821 2.22616L129.128 1.28217L129.57 1.14871L129.944 1.16417L132.444 1.93516Z"/>
</mask>
<path d="M132.444 1.93516L132.759 2.54375L133.207 3.16792L134.709 4.22367L135.185 4.8106L135.553 5.46267L135.785 5.97194L136.248 6.37873L136.897 6.63944L137.453 6.94996L137.793 7.40646L138.303 7.88155L139.286 8.52743L139.765 8.54286L140.318 8.63308L140.806 8.80391L141.329 8.75418L142.172 8.33185L143.167 7.62388L143.927 7.18605L145.766 7.34113L146.792 7.69824L147.608 8.19815L148.245 8.16694L149.632 7.2416L150.368 6.25726L151.081 6.04627L152.163 6.47479L153.056 7.39394L153.841 8.72917L154.394 9.23844L155.151 10.0272L156.656 11.7257L158.616 12.5766L159.376 12.9957L159.623 13.415L159.768 13.9739L159.818 14.5794L160.056 14.8309L160.584 14.7437L161.035 14.6566L161.533 14.8305L161.879 15.2715L162.052 15.6162L162.24 15.9856L162.732 16.2217L162.828 16.6968L162.491 17.2743L162.145 17.7929L161.724 18.8239L161.505 19.8796L161.789 20.2305L162.089 20.5224L162.25 20.8175L162.345 21.1622L162.308 21.5658L161.641 23.0315L161.298 24.3108L161.286 24.9598L162.166 25.438L163.31 25.4133L163.671 25.7053L164.033 26.171L164.351 26.4101L164.833 26.4039L165.167 26.5652L165.3 26.8944L165.689 27.2484L166.017 27.6396L165.859 28.1396L165.831 28.5215L165.015 29.5835L163.143 31.6547L159.113 35.4958L159.11 35.4989L157.75 35.9616L157.049 36.6758L156.551 37.7968L155.377 38.747L154.471 39.132L154.376 39.3588L154.305 40.3897L154.397 41.902L153.974 42.5944L153.359 43.9421L153.041 44.7836L152.793 44.9479L152.518 45.3703L152.345 46.7427L152.228 47.2054L151.786 50.0467L151.913 50.8572L151.57 52.2079L151.554 53.0029L151.412 53.9034L151.168 54.6828L151.183 55.9311L151.322 57.9681L151.298 58.2384L150.958 58.4278L150.352 58.9339L149.78 59.2724L149.345 59.3595L148.619 60.26L148 61.114L147.537 61.9462L147.416 62.3281L147.512 63.4056L147.577 64.6819L147.435 65.2315L147.219 65.5576L146.205 66.25L145.538 66.7468L145.222 67.0076L145.058 67.4081L145.352 68.3521L145.374 69.0415L145.615 69.4483L146.418 69.7774L146.415 70.1097L146.437 70.4668L146.857 70.9108L147.623 71.8175L148.238 72.6684L148.254 73.4074L148.136 74.6433L148.115 75.3544L148.177 76.3294L148.174 78.1429L148.13 79.4347L148.229 80.1054L149.169 81.7045L149.583 83.4776L149.79 84.7756L149.799 85.1886L149.481 86.6822L149.119 88.1323L149.097 88.682L149.267 89.4148L149.938 91.0916L150.426 92.312L150.661 93.0479L150.998 93.905L151.446 95.2185L151.557 95.8426L151.465 96.3084L150.55 97.9573L150.457 98.4758L150.683 99.7552L150.983 100.991L151.415 101.693L152.447 103.631L153.217 104.286L154.635 105.255L155.887 106.23L156.369 106.736L156.811 107.301L157.682 108.748L158.214 109.925L158.495 110.99L159.178 112.446L159.815 113.797L160.637 115.449L161.218 116.616L161.48 117.396L159.978 117.629L157.806 117.961L155.411 118.331L152.939 118.709L150.488 119.088L148.164 119.445L146.054 119.768L145.411 119.948L145.726 120.868L145.581 121.833L145.164 122.582L144.502 123.501L144.203 123.867L143.529 124.584L142.966 125.091L141.82 125.941L141.097 126.429L141.091 126.87L142.308 128.932L142.861 130.413L143.087 131.751L143.075 132.521L143.028 134.105L142.973 135.99L142.889 136.732L143.22 138.077L143.161 139.126L142.342 140.3L142.114 141.452L141.699 143.008L141.128 145.169L140.72 146.305L140.945 147.045L141.149 147.541L141.366 148.209L141.804 149.215L142.317 149.808L142.605 150.063L144.292 151.333L144.994 151.944L146.063 153.162L146.854 153.969L147.954 154.158L149.274 154.463L150.003 154.699L150.504 154.584L150.674 154.298L150.649 153.69L150.562 153.243L150.701 152.898L151.149 152.671L152.296 152.634L152.793 152.33L153.189 152.255L153.192 153.59V154.869L153.195 156.425V158.211L153.198 159.676V161.235L153.201 163.036L153.192 163.238L153.016 163.645L152.562 163.784L151.947 163.433L151.91 163.064L151.758 162.402L151.474 162.064L151.1 161.958L150.47 162.129L149.604 162.616L148.495 163.045L148.044 163.29L147.262 163.259L146.415 163.026L145.794 162.476L145.615 161.654L145.068 160.809L144.326 159.585L143.952 159.086L143.458 158.514L142.957 158.449L142.398 158.291L142.055 157.456L141.733 156.4L141.536 155.993L141.202 155.468L140.723 155.148L139.678 154.726L138.22 154.139L136.384 153.4L135.513 153.363L134.536 153.238L133.924 152.888L133.575 152.608L133.173 151.583L132.623 150.385L131.013 148.959L130.652 147.382L130.327 147.155L129.774 147.283L129.348 147.478L129.178 147.904L128.748 149.326L128.51 149.981L128.349 150.164L127.997 150.375L127.422 150.568L126.603 150.664L125.448 150.627L124.001 150.416L123.223 150.257L121.112 150.021L120.5 149.906L119.638 149.596L119.017 149.285L116.971 148.615L116.041 148.696L115.593 148.22L115.188 147.988L114.632 147.54L114.385 146.929L114.054 145.615L114.134 144.913L114.372 144.131L114.106 143.914H113.736L113.204 144.184L112.261 144.336L110.534 144.681L109.922 144.873L109.245 145.022L108.726 145.155L107.428 145.91L106.977 145.991L106.208 145.721L105.837 145.317L106.208 144.861L106.365 144.292L106.103 143.184L105.704 142.671L104.554 142.305L104.112 142.271L103.927 141.65L103.609 141.084L102.954 140.976L102.638 140.911L102.311 141.085L102.125 141.541L102.073 141.892L101.489 142.159L100.296 142.106L99.1124 141.852L98.2811 141.768L97.728 141.833L95.6142 142.699L94.9189 142.814L92.6506 142.749L91.3651 142.566L90.4504 142.534L89.8014 142.805L88.9918 143.448L88.315 143.792L88.0029 143.755L87.8113 143.485L87.5455 143.118L87.4621 142.149L87.1252 141.09L87.3478 140.535L88.0152 140.137L88.247 139.317L88.04 138.088L88.0276 137.224L88.2069 136.724L87.9658 135.513L87.2983 133.591L86.3558 132.029L85.1382 130.821L84.3409 129.669L83.9639 128.567L84.106 125.931L84.4738 123.611L84.7643 121.77L84.6808 118.686L83.8557 116.68L83.6765 114.525L84.1431 112.221L84.2111 110.644L83.9021 109.836L83.692 109.715L83.4262 109.634L81.3403 109.557L78.5621 109.454L76.1394 109.423L73.5095 109.392L73.08 109.1L72.8853 108.562L72.8946 108.032L73.4323 106.404L73.355 106.271L72.4218 106.237L69.8877 106.501L68.2159 106.761L67.1559 106.849L65.2925 107.293L64.1398 108.23L63.7628 109.407L63.7937 110.379L63.7288 111.09L63.2035 111.832L62.7894 112.686L62.7739 113.137L62.5205 115.41L60.8023 115.714H59.0842L58.6824 115.686L56.5594 115.143L55.7714 115.14L55.0977 115.425L53.7967 115.705L52.5544 115.91L51.3028 116.584L50.9691 116.643L50.1378 116.292L48.9759 116.326L47.7985 116.494L47.2484 116.568L46.8683 116.363L45.7867 114.668L44.3467 112.41L43.5648 110.994L43.2743 110.625L42.7737 110.137L42.0877 109.215L41.8034 108.339L41.9239 107.51L41.5222 106.393L40.5982 104.986L39.9894 103.644L39.6989 102.362L39.6278 101.269L39.7731 100.356L39.5969 99.6853L39.0932 99.2537L38.8213 98.704L38.6235 98.4773L38.2063 97.9587L37.2885 97.3874L36.281 97.0862L34.0684 97.08L31.179 97.0707L28.5616 97.1143L25.6505 97.164L22.7024 97.2138L21.9082 97.2885L19.6585 97.3228L17.8569 97.177L17.1894 97.0837L16.0151 97.0124L14.1609 96.9969L13.1566 97.0528L10.7524 97.0559L10.533 97.0683L10.1528 97.2295L9.12687 97.0059L8.11943 97.0806L7.55701 96.8323L6.32089 96.9873L5.72138 97.1921L4.76032 97.9156L3.31715 98.2914L2.78255 98.2602L2.42717 98.1394L1.5897 97.3444L0.940745 96.5806L0.708984 96.1552L1.07054 96.0495L2.20468 95.8882L3.05757 95.8104L3.22445 95.6087L3.35424 93.2487L3.38515 90.8546L3.0823 90.5379L2.78564 90.3454L2.77328 90.1811L3.21518 89.8799L3.83014 89.529L4.02793 89.3708L4.70779 88.7374L6.05205 87.2717L7.07493 86.9115L8.02673 86.5264L8.15961 86.3868L8.28631 86.1011L8.71277 86.1227L8.84874 86.2592L9.05888 86.5698L9.43281 87.0045L10.1096 87.52L10.7894 88.0758L11.1294 88.1472L11.6763 87.8645L12.3129 87.4453L13.2493 87.141L13.4718 86.8553L13.5923 86.2435L13.6665 85.5914L13.7468 84.8213L13.9384 84.7157L14.2753 84.6409L14.8964 84.8584L15.1807 85.0851H15.6906L16.0151 84.8803L16.6084 84.5015L17.3624 84.3495L18.169 83.9831L18.9447 83.5173L19.3093 83.4738L19.6956 84.0855L20.0417 84.5109L20.1035 84.7781L19.7574 85.2874L19.3711 85.9581L19.6956 86.7934L19.7728 87.6039L19.7636 88.0945L20.0263 88.2931L20.2055 88.3864L20.4836 88.2718L21.0368 88.3061L21.7012 88.5607L22.3409 88.5329L22.9589 88.2192L24.1116 87.002L25.7958 84.878L27.1926 83.5459L28.2958 83.0025L29.0437 82.369L29.4361 81.6393L30.0789 81.1455L31.4201 80.7512L32.4399 80.304L33.4596 78.8477L34.8194 76.2269L35.1995 73.8886L35.4312 72.4665L35.2984 67.5633L35.2087 65.9548L35.4158 65.0792L35.9226 64.4768L37.307 63.2005L38.2372 62.154L38.948 60.9306L40.3108 58.139L40.9103 57.2385L41.1791 56.8348L42.0012 56.0927L43.1538 55.4374L44.6371 54.8754L46.927 52.9315L48.7472 50.9753L48.5 48.6246L48.9264 46.6745L49.9184 44.1966L50.2429 41.5727L49.903 38.8059L50.0451 36.5422L50.9969 33.9121L51.3925 32.9339L51.5254 31.3348L51.5192 28.7916L52.7275 25.3137L53.8709 23.2271L55.1502 20.8981L55.6385 19.4884L56.2875 17.6066L56.1855 16.0944L56.068 14.3554L56.3894 11.9644L56.2689 10.5578L55.8147 9.33429L56.0464 8.5611L56.9642 8.24748L58.1076 7.02401L60.1596 3.82875L62.3722 2.26993L63.9111 1.77619L65.515 1.82901L66.5626 2.10858L67.0447 2.61163L68.2592 3.36622L70.1999 4.36301L71.6523 5.61131L72.4558 6.86888L73.08 7.55204L73.8525 7.78806L75.1165 7.68551L76.5287 7.98052L77.9997 8.68541L78.9051 8.94614L79.2389 8.76295L79.9496 8.86552L81.5751 9.44309L82.8699 9.12633L84.789 9.36543L89.2452 10.3964L89.4831 10.2225L89.5882 10.182L89.9683 9.76588L90.9356 7.70092L91.7545 6.43089L92.1376 5.95268L93.0833 5.28197L94.1958 5.11114L95.2619 5.17013L96.155 5.46517L96.9709 5.80672L97.8732 5.80981L98.7972 5.48067L100.169 4.87515L101.616 4.48075L102.858 4.04606L104.904 3.28524L105.704 2.93438L106.721 2.79784L109.57 3.49342L111.415 3.03386L112.169 3.1673L113.766 2.67357L114.057 2.34132L115.074 0.661403L116.155 0.170776L117.793 0.419142L118.714 0.67988L121.78 1.39719L125.76 2.14554L126.931 2.26013L127.407 2.34417L127.821 2.22616L129.128 1.28217L129.57 1.14871L129.944 1.16417L132.444 1.93516Z" fill="#16304C" stroke="white" mask="url(#path-1-inside-1_51_721)"/>
</svg>
